<mxfile host="app.diagrams.net" modified="2021-12-24T05:59:47.625Z" agent="5.0 (Macintosh; Intel Mac OS X 10_15_7) AppleWebKit/537.36 (KHTML, like Gecko) Chrome/96.0.4664.110 Safari/537.36" etag="kFrZwwtslaOcSB_E5e6k" version="16.0.3" type="github">
  <diagram id="7a9IiDONnUuU7uXEswzE" name="第 1 页">
    <mxGraphModel dx="1266" dy="841" grid="1" gridSize="10" guides="1" tooltips="1" connect="1" arrows="1" fold="1" page="1" pageScale="1" pageWidth="827" pageHeight="1169" math="0" shadow="0">
      <root>
        <mxCell id="0" />
        <mxCell id="1" parent="0" />
        <mxCell id="iApv8sAsPLEgopmDYIuA-8" value="kafka物料消息" style="ellipse;shape=cloud;whiteSpace=wrap;html=1;container=0;" vertex="1" parent="1">
          <mxGeometry x="270" y="270" width="120" height="80" as="geometry" />
        </mxCell>
        <mxCell id="iApv8sAsPLEgopmDYIuA-9" value="" style="curved=1;endArrow=classic;html=1;rounded=0;exitX=0.875;exitY=0.5;exitDx=0;exitDy=0;exitPerimeter=0;entryX=0;entryY=0.5;entryDx=0;entryDy=0;dashed=1;" edge="1" parent="1" source="iApv8sAsPLEgopmDYIuA-8" target="iApv8sAsPLEgopmDYIuA-10">
          <mxGeometry width="50" height="50" relative="1" as="geometry">
            <mxPoint x="330" y="490" as="sourcePoint" />
            <mxPoint x="440" y="400" as="targetPoint" />
            <Array as="points">
              <mxPoint x="480" y="300" />
              <mxPoint x="460" y="360" />
            </Array>
          </mxGeometry>
        </mxCell>
        <mxCell id="iApv8sAsPLEgopmDYIuA-1" value="更新物料消息" style="swimlane;childLayout=stackLayout;resizeParent=1;resizeParentMax=0;startSize=20;horizontal=0;horizontalStack=1;container=0;" vertex="1" parent="1">
          <mxGeometry x="200" y="220" width="1510" height="1610" as="geometry" />
        </mxCell>
        <mxCell id="iApv8sAsPLEgopmDYIuA-3" value="Lane 2" style="swimlane;startSize=20;container=0;" vertex="1" parent="iApv8sAsPLEgopmDYIuA-1">
          <mxGeometry x="20" width="1490" height="1610" as="geometry" />
        </mxCell>
        <mxCell id="iApv8sAsPLEgopmDYIuA-5" value="dsp-admin-service" style="swimlane;startSize=20;container=0;" vertex="1" parent="1">
          <mxGeometry x="220" y="220" width="190" height="1610" as="geometry" />
        </mxCell>
        <mxCell id="iApv8sAsPLEgopmDYIuA-2" value="KafkaMaterialListener" style="swimlane;startSize=20;container=0;" vertex="1" parent="1">
          <mxGeometry x="410" y="220" width="690" height="1290" as="geometry" />
        </mxCell>
        <mxCell id="iApv8sAsPLEgopmDYIuA-15" value="开启线程异步处理B类物料" style="whiteSpace=wrap;html=1;rounded=1;" vertex="1" parent="iApv8sAsPLEgopmDYIuA-2">
          <mxGeometry x="250" y="200" width="170" height="40" as="geometry" />
        </mxCell>
        <mxCell id="iApv8sAsPLEgopmDYIuA-16" value="自旋获取分布式锁" style="whiteSpace=wrap;html=1;rounded=1;" vertex="1" parent="iApv8sAsPLEgopmDYIuA-2">
          <mxGeometry x="55" y="305" width="120" height="60" as="geometry" />
        </mxCell>
        <mxCell id="iApv8sAsPLEgopmDYIuA-10" value="获取要更新的物料" style="rounded=1;whiteSpace=wrap;html=1;container=0;" vertex="1" parent="1">
          <mxGeometry x="520" y="250" width="120" height="60" as="geometry" />
        </mxCell>
        <mxCell id="iApv8sAsPLEgopmDYIuA-12" value="" style="edgeStyle=orthogonalEdgeStyle;rounded=0;orthogonalLoop=1;jettySize=auto;html=1;curved=1;dashed=1;" edge="1" parent="1" source="iApv8sAsPLEgopmDYIuA-10" target="iApv8sAsPLEgopmDYIuA-11">
          <mxGeometry relative="1" as="geometry" />
        </mxCell>
        <mxCell id="iApv8sAsPLEgopmDYIuA-17" value="" style="edgeStyle=orthogonalEdgeStyle;curved=1;rounded=0;orthogonalLoop=1;jettySize=auto;html=1;" edge="1" parent="1" source="iApv8sAsPLEgopmDYIuA-11" target="iApv8sAsPLEgopmDYIuA-16">
          <mxGeometry relative="1" as="geometry" />
        </mxCell>
        <mxCell id="iApv8sAsPLEgopmDYIuA-11" value="开启线程异步处理A类物料" style="whiteSpace=wrap;html=1;rounded=1;" vertex="1" parent="1">
          <mxGeometry x="440" y="420" width="170" height="40" as="geometry" />
        </mxCell>
        <mxCell id="iApv8sAsPLEgopmDYIuA-14" value="" style="edgeStyle=orthogonalEdgeStyle;rounded=0;orthogonalLoop=1;jettySize=auto;html=1;curved=1;dashed=1;exitX=0.5;exitY=1;exitDx=0;exitDy=0;" edge="1" parent="1" target="iApv8sAsPLEgopmDYIuA-15" source="iApv8sAsPLEgopmDYIuA-10">
          <mxGeometry relative="1" as="geometry">
            <mxPoint x="800.0000000000002" y="310" as="sourcePoint" />
          </mxGeometry>
        </mxCell>
      </root>
    </mxGraphModel>
  </diagram>
</mxfile>
